<svg xmlns="http://www.w3.org/2000/svg" version="1.1" xmlns:xlink="http://www.w3.org/1999/xlink" xmlns:svgjs="http://svgjs.com/svgjs" width="500" height="500" preserveAspectRatio="none" viewBox="0 0 500 500">
    <g mask="url(&quot;#SvgjsMask1070&quot;)" fill="none">
        <rect width="500" height="500" x="0" y="0" fill="rgba(0, 115, 207, 1)"></rect>
        <path d="M0,202.784C36.795,196.545,59.944,161.419,94.158,146.513C137.755,127.518,201.209,143.574,227.242,103.778C252.399,65.321,218.724,14.912,209.727,-30.154C201.271,-72.51,200.545,-116.976,176.064,-152.56C150.022,-190.413,114.59,-229.573,68.941,-234.791C23.732,-239.959,-9.165,-192.668,-52.466,-178.683C-94.049,-165.253,-150.281,-188.039,-178.669,-154.818C-207.095,-121.552,-180.626,-69.977,-182.705,-26.269C-184.538,12.255,-201.722,50.05,-190.166,86.846C-177.914,125.86,-152.105,161.062,-117.189,182.349C-82.633,203.417,-39.902,209.55,0,202.784" fill="#005ca6"></path>
        <path d="M500 682.965C534.645 682.423 564.855 664.386 596.317 649.871 632.96 632.965 676.461 624.288 699.298 591.016 723.3050000000001 556.039 734.794 508.342 720.995 468.226 707.512 429.027 658.95 416.949 629.418 387.859 602.988 361.824 592.254 317.478 556.816 306.501 521.347 295.514 486.827 323.435 450.829 332.53999999999996 413.054 342.095 368.98 335.317 339.983 361.345 310.196 388.08299999999997 303.124 431.259 296.815 470.786 290.426 510.809 283.299 554.605 303.529 589.725 323.35900000000004 624.151 365.836 635.8820000000001 401.728 652.915 433.315 667.905 465.041 683.512 500 682.965" fill="#008af8"></path>
    </g>
    <defs>
        <mask id="SvgjsMask1070">
            <rect width="500" height="500" fill="#ffffff"></rect>
        </mask>
    </defs>
</svg>